<?xml version="1.0" encoding="iso-8859-1"?>
<!-- Generator: Adobe Illustrator 21.0.0, SVG Export Plug-In . SVG Version: 6.00 Build 0)  -->
<svg version="1.1" id="&#x421;&#x43B;&#x43E;&#x439;_1"
	 xmlns="http://www.w3.org/2000/svg" xmlns:xlink="http://www.w3.org/1999/xlink" x="0px" y="0px" viewBox="0 0 40 37.8364182"
	 style="enable-background:new 0 0 40 37.8364182;" xml:space="preserve">
<g>
	<path style="fill:#501E00;" d="M35.552227,10.2645264c-0.6142273,0-1.1135025,0.498807-1.1135025,1.1136227v20.3338184
		c0,2.1488457-1.748127,3.8974419-3.8969727,3.8974419H6.1244512c-2.1487265,0-3.8973243-1.7485962-3.8973243-3.8974419V7.2946696
		c0-2.1488452,1.7485979-3.8974466,3.8973243-3.8974466h24.4173012c0.6152821,0,1.1136208-0.49822,1.1136208-1.1135023
		c0-0.6148183-0.4983387-1.113506-1.1136208-1.113506H6.1244512C2.7479806,1.1702148,0,3.917609,0,7.2946696v24.4172974
		c0,3.3770599,2.7479806,6.1244507,6.1244512,6.1244507h24.4173012c3.377533,0,6.1245689-2.7473907,6.1245689-6.1244507V11.378149
		C36.6658478,10.7633333,36.167984,10.2645264,35.552227,10.2645264L35.552227,10.2645264z M35.552227,10.2645264"/>
	<path style="fill:#FFC200;" d="M39.6739082,0.3260927c-0.4351501-0.4347902-1.140625-0.4347902-1.5744705,0L15.7240562,22.7005329
		l-5.5925179-5.592165c-0.4347916-0.4351463-1.1394405-0.4351463-1.5745869,0c-0.4346733,0.4347916-0.4346733,1.1397953,0,1.5745869
		l6.38099,6.3795757c0.2178669,0.2173996,0.5024624,0.3260937,0.787529,0.3260937
		c0.2850657,0,0.5701361-0.1086941,0.7874117-0.3260937c0-0.000946,0-0.0014133,0.0009441-0.0018845L39.6739082,1.9010378
		C40.108696,1.466244,40.108696,0.7607677,39.6739082,0.3260927L39.6739082,0.3260927z M39.6739082,0.3260927"/>
</g>
</svg>
