<?xml version="1.0" encoding="utf-8"?>
<!-- Generator: Adobe Illustrator 21.0.0, SVG Export Plug-In . SVG Version: 6.00 Build 0)  -->
<svg version="1.1" id="Слой_1" xmlns="http://www.w3.org/2000/svg" xmlns:xlink="http://www.w3.org/1999/xlink" x="0px" y="0px"
	 viewBox="0 0 60 60" style="enable-background:new 0 0 60 60;" xml:space="preserve">
<style type="text/css">
	.st0{fill:#501E00;}
</style>
<g>
	<path class="st0" d="M57,0H3C1.5,0,0.3,1.2,0.3,2.6S1.5,5.3,3,5.3h2.9v54.1c0,0.1,0.1,0.2,0.2,0.3c0.1,0,0.3,0,0.3-0.1l2.4-2.8
		c0.1-0.2,0.4-0.3,0.6-0.3c0.2,0,0.4,0.1,0.6,0.2l2.9,2.9c0.3,0.3,0.8,0.3,1.2,0l3-3c0.3-0.3,0.8-0.3,1.2,0l3,3
		c0.3,0.3,0.8,0.3,1.2,0l3-3c0.3-0.3,0.8-0.3,1.2,0l3,3c0.3,0.3,0.8,0.3,1.2,0l3-3c0.3-0.3,0.8-0.3,1.2,0l3,3c0.3,0.3,0.8,0.3,1.2,0
		l3-3c0.3-0.3,0.8-0.3,1.2,0l3,3c0.3,0.3,0.8,0.3,1.2,0l2.9-2.9c0.2-0.2,0.4-0.2,0.6-0.2c0.2,0,0.4,0.1,0.6,0.3l2.4,2.8
		c0.1,0.1,0.2,0.1,0.3,0.1c0.1,0,0.2-0.2,0.2-0.3V5.3H57c1.5,0,2.6-1.2,2.6-2.6S58.5,0,57,0L57,0z M13.7,10.5h22c1.1,0,2,0.9,2,2
		c0,1.1-0.9,2-2,2h-22c-1.1,0-2-0.9-2-2C11.7,11.4,12.6,10.5,13.7,10.5L13.7,10.5z M45.7,37.3H13.5c-1.1,0-2-0.9-2-2
		c0-1.1,0.9-2,2-2h32.1c1.1,0,2,0.9,2,2C47.6,36.4,46.8,37.3,45.7,37.3L45.7,37.3z M45.8,26.3H13.7c-1.1,0-2-0.9-2-2
		c0-1.1,0.9-2,2-2h32.1c1.1,0,2,0.9,2,2C47.8,25.4,46.9,26.3,45.8,26.3L45.8,26.3z"/>
</g>
</svg>
