<?xml version="1.0" encoding="utf-8"?>
<!-- Generator: Adobe Illustrator 21.0.0, SVG Export Plug-In . SVG Version: 6.00 Build 0)  -->
<svg version="1.1" id="Слой_1" xmlns="http://www.w3.org/2000/svg" xmlns:xlink="http://www.w3.org/1999/xlink" x="0px" y="0px"
	 viewBox="0 0 60 60" style="enable-background:new 0 0 60 60;" xml:space="preserve">
<style type="text/css">
	.st0{fill:#501E00;}
	.st1{clip-path:url(#SVGID_2_);}
	.st2{clip-path:url(#SVGID_4_);fill:#501E00;}
</style>
<path class="st0" d="M34.1,39.9c-0.2-0.2-0.5-0.4-0.8-0.6c-0.6-0.3-1.3-0.5-2-0.7v5.4c1.1-0.1,2.4-0.5,3-1.6
	c0.3-0.5,0.3-1.1,0.2-1.7C34.4,40.4,34.3,40.1,34.1,39.9L34.1,39.9z"/>
<path d="M34.2,42.4C34.3,42.4,34.3,42.4,34.2,42.4C34.3,42.4,34.3,42.4,34.2,42.4L34.2,42.4z"/>
<path class="st0" d="M26,31.3c-0.2,0.3-0.3,0.6-0.3,0.9c0,0.3,0,0.7,0.1,1c0.1,0.3,0.4,0.5,0.6,0.7c0.3,0.2,0.6,0.4,1,0.5
	c0.3,0.1,0.6,0.2,0.9,0.3V30C27.4,30.2,26.5,30.5,26,31.3L26,31.3z"/>
<g>
	<g>
		<defs>
			<rect id="SVGID_1_" x="5.1" y="0.1" width="49.7" height="59.9"/>
		</defs>
		<clipPath id="SVGID_2_">
			<use xlink:href="#SVGID_1_"  style="overflow:visible;"/>
		</clipPath>
		<path class="st1" d="M34.3,42.3C34.3,42.3,34.3,42.3,34.3,42.3C34.3,42.3,34.3,42.3,34.3,42.3L34.3,42.3z"/>
	</g>
	<g>
		<defs>
			<rect id="SVGID_3_" x="5.1" y="0.1" width="49.7" height="59.9"/>
		</defs>
		<clipPath id="SVGID_4_">
			<use xlink:href="#SVGID_3_"  style="overflow:visible;"/>
		</clipPath>
		<path class="st2" d="M33.1,13.1c4.6-3.8,7.6-12.5,5.7-12.8C36.4-0.2,31,2,28.4,2.3c-3.7,0.4-7.7-4-10-1.5c-1.8,2,1.3,9.4,6.3,12.6
			c-14.8,7.3-35.5,43.7,0.7,46.4C75.4,63.4,50.3,20.2,33.1,13.1L33.1,13.1z M37.4,41.8c-0.2,1.4-0.9,2.7-2,3.6
			c-1.2,0.9-2.7,1.4-4.2,1.5v1.6c0,0.4-0.2,0.8-0.5,1.1c-0.4,0.4-1.1,0.5-1.6,0.2c-0.5-0.2-0.9-0.8-0.9-1.3v-1.7
			c-0.3,0-0.5-0.1-0.8-0.2c-1.4-0.4-2.7-1.1-3.6-2.2c-0.5-0.5-0.8-1.2-1.1-1.8c-0.1-0.2-0.1-0.4-0.2-0.5c0-0.2-0.1-0.3-0.1-0.5
			c0-0.3,0-0.6,0.2-0.8c0.3-0.5,0.8-0.8,1.4-0.8c0.6,0.1,1.1,0.5,1.3,1c0.1,0.2,0.1,0.3,0.2,0.5c0.1,0.2,0.1,0.3,0.2,0.5
			c0.2,0.3,0.4,0.6,0.6,0.8c0.5,0.5,1.2,0.8,1.9,1v-5.8c-1.4-0.4-2.7-0.8-3.9-1.7c-0.5-0.4-1-0.9-1.3-1.6c-0.3-0.7-0.5-1.4-0.5-2.1
			c0-0.7,0.1-1.5,0.4-2.1c0.3-0.6,0.7-1.2,1.2-1.7c1.1-1,2.5-1.6,4-1.8v-1.6c0-0.4,0.2-0.8,0.5-1.1c0.4-0.4,1.1-0.5,1.6-0.2
			c0.5,0.2,0.9,0.8,0.9,1.3V27c0.2,0,0.4,0.1,0.6,0.1c1.4,0.3,2.8,0.8,3.9,1.9c0.5,0.5,0.9,1.1,1.2,1.7c0.1,0.2,0.1,0.4,0.2,0.5
			c0.1,0.2,0.1,0.3,0.1,0.5c0,0.3,0,0.6-0.1,0.8c-0.3,0.5-0.8,0.9-1.4,0.8c-0.6,0-1.1-0.4-1.3-0.9c-0.1-0.2-0.1-0.3-0.2-0.5
			c-0.1-0.2-0.1-0.3-0.2-0.5c-0.2-0.3-0.4-0.5-0.7-0.7c-0.6-0.4-1.3-0.7-2-0.8v5.6c0.9,0.2,1.7,0.4,2.5,0.7c1.2,0.5,2.4,1.2,3.1,2.4
			c-0.1-0.2-0.2-0.4,0,0c0.2,0.4,0.1,0.2,0,0C37.4,39.6,37.6,40.8,37.4,41.8L37.4,41.8z"/>
	</g>
</g>
<path d="M34.2,42.4C34.2,42.4,34.2,42.4,34.2,42.4C34.2,42.4,34.2,42.4,34.2,42.4L34.2,42.4z"/>
</svg>
