<?xml version="1.0" encoding="utf-8"?>
<!-- Generator: Adobe Illustrator 21.0.0, SVG Export Plug-In . SVG Version: 6.00 Build 0)  -->
<svg version="1.1" id="Слой_1" xmlns="http://www.w3.org/2000/svg" xmlns:xlink="http://www.w3.org/1999/xlink" x="0px" y="0px"
	 viewBox="0 0 60 60" style="enable-background:new 0 0 60 60;" xml:space="preserve">
<style type="text/css">
	.st0{fill:#501E00;}
</style>
<path class="st0" d="M60,17.9V36c0,0-3.9,0.8-4.7,0.9c-0.8,0.1-3.3,0.9-5.1-0.8c-2.8-2.7-12.8-12.6-12.8-12.6s-1.7-1.7-4.5-0.2
	c-2.5,1.3-6.3,3.3-7.9,4.1c-3,1.6-5.4-0.9-5.4-2.8c0-1.5,0.9-2.5,2.2-3.2c3.6-2.2,11.1-6.4,14.2-8.1c1.9-1,3.3-1.1,5.9,1.1
	c3.2,2.7,6.1,5.2,6.1,5.2s0.9,0.8,2.4,0.5C54.3,19.2,60,17.9,60,17.9L60,17.9z M20.3,48.7c0.5-1.2,0.3-2.6-0.6-3.6
	c-0.8-0.9-2-1.1-3.2-0.8c0.3-1.1,0.1-2.4-0.7-3.2c-0.8-0.8-2-1.1-3.2-0.8c0.3-1.1,0.1-2.4-0.7-3.2c-1.3-1.3-3.6-1.3-5.1,0.1
	c-1.5,1.4-2.4,4-1.1,5.5c1.3,1.5,2.8,0.6,4,0.3c-0.3,1.1-1.3,2.2-0.1,3.7c1.2,1.5,2.8,0.6,4,0.3c-0.3,1.1-1.2,2.3-0.1,3.7
	c1.2,1.4,3,0.7,4.3,0.3c-0.5,1.2-1.5,2.6-0.2,4.1c1.3,1.5,4.4,0.8,5.9-0.6c1.5-1.4,1.6-3.7,0.3-5C22.9,48.5,21.6,48.3,20.3,48.7
	L20.3,48.7z M47.5,39.2C36.7,28.4,41.8,33.5,36,27.7c0,0-1.7-1.7-4-0.7c-1.6,0.7-3.7,1.7-5.2,2.4c-1.7,0.9-2.9,1.2-3.5,1.2
	c-3.3,0-6-2.7-6-6c0-2.1,1.1-4,2.8-5.1c2.4-1.7,7.9-4.6,7.9-4.6s-1.7-2.1-5.3-2.1c-3.7,0-11.3,5-11.3,5S9.1,19.2,6,17.9l-6-2.1v20.8
	c0,0,1.7,0.5,3.2,1.1c0.3-1,0.9-1.9,1.7-2.7c2.5-2.4,6.8-2.4,9.1-0.1c0.7,0.7,1.2,1.6,1.4,2.5c0.9,0.3,1.8,0.8,2.5,1.5
	c0.7,0.7,1.2,1.6,1.4,2.5c0.9,0.3,1.8,0.8,2.5,1.5c0.8,0.8,1.3,1.7,1.5,2.8c1,0.3,1.9,0.8,2.6,1.5c1.4,1.4,1.9,3.4,1.6,5.2
	c0,0,0,0,0,0c0,0,0.9,1,1.4,1.5c1,1,2.7,1,3.7,0c1-1,1-2.7,0-3.7c0,0-3.7-3.9-3.4-4.2c0.3-0.3,5,4.6,5,4.7c1,1,2.7,1,3.7,0
	c1-1,1-2.7,0-3.7c-0.1,0-0.3-0.2-0.3-0.3c0,0-4.6-4.1-4.3-4.5c0.4-0.4,6.1,5,6.1,5c1,0.9,2.6,0.9,3.6-0.1c1-1,1-2.5,0.1-3.5
	c0-0.1-4.4-4.6-4-5c0.3-0.3,4.7,4.1,4.7,4.1c1,1,2.7,1,3.7,0C48.6,41.9,48.6,40.3,47.5,39.2C47.5,39.2,47.5,39.2,47.5,39.2
	L47.5,39.2z"/>
</svg>
