<?xml version="1.0" encoding="utf-8"?>
<!-- Generator: Adobe Illustrator 21.0.0, SVG Export Plug-In . SVG Version: 6.00 Build 0)  -->
<svg version="1.1" id="Слой_1" xmlns="http://www.w3.org/2000/svg" xmlns:xlink="http://www.w3.org/1999/xlink" x="0px" y="0px"
	 viewBox="0 0 60 60" style="enable-background:new 0 0 60 60;" xml:space="preserve">
<style type="text/css">
	.st0{fill:#501E00;}
</style>
<g>
	<path class="st0" d="M44.6,40.1c-4-3.3-8.3-5.5-9.2-5.9c-0.1,0-0.2-0.1-0.2-0.3v-6.2c0.8-0.5,1.3-1.4,1.3-2.4v-6.5
		c0-3.2-2.6-5.8-5.8-5.8h-1.4c-3.2,0-5.8,2.6-5.8,5.8v6.5c0,1,0.5,1.9,1.3,2.4V34c0,0.1-0.1,0.2-0.2,0.3c-0.9,0.4-5.2,2.6-9.2,5.9
		c-0.7,0.6-1.1,1.5-1.1,2.4V47h31.5v-4.4C45.7,41.6,45.3,40.7,44.6,40.1L44.6,40.1z"/>
	<path class="st0" d="M59,35.8c-3.4-2.8-7-4.6-7.7-5c-0.1,0-0.1-0.1-0.1-0.2v-5.2c0.7-0.4,1.1-1.2,1.1-2v-5.4c0-2.7-2.2-4.9-4.9-4.9
		h-1.2c-2.7,0-4.9,2.2-4.9,4.9v5.4c0,0.8,0.4,1.6,1.1,2v5.2c0,0.1,0,0.2-0.1,0.2c-0.5,0.2-2,1-4,2.2c1.9,1.1,5,2.9,7.8,5.2
		c1,0.8,1.7,2,1.9,3.2H60v-3.7C59.9,37,59.6,36.3,59,35.8L59,35.8z"/>
	<path class="st0" d="M17.7,30.8c-0.1,0-0.1-0.1-0.1-0.2v-5.2c0.7-0.4,1.1-1.2,1.1-2v-5.4c0-2.7-2.2-4.9-4.9-4.9h-1.2
		c-2.7,0-4.9,2.2-4.9,4.9v5.4c0,0.8,0.4,1.6,1.1,2v5.2c0,0.1,0,0.2-0.1,0.2c-0.7,0.4-4.4,2.2-7.7,5c-0.6,0.5-1,1.2-1,2v3.7h11.9
		c0.2-1.3,0.9-2.4,1.9-3.2c2.9-2.4,5.9-4.2,7.8-5.2C19.8,31.8,18.2,31,17.7,30.8L17.7,30.8z"/>
</g>
</svg>
