<?xml version="1.0" encoding="iso-8859-1"?>
<!-- Generator: Adobe Illustrator 21.0.0, SVG Export Plug-In . SVG Version: 6.00 Build 0)  -->
<svg version="1.1" id="&#x421;&#x43B;&#x43E;&#x439;_1"
	 xmlns="http://www.w3.org/2000/svg" xmlns:xlink="http://www.w3.org/1999/xlink" x="0px" y="0px" viewBox="0 0 220.667 220.667"
	 style="enable-background:new 0 0 220.667 220.667;" xml:space="preserve">
<g>
	<g>
		
			<image style="overflow:visible;opacity:0.25;" width="153" height="166" xlink:href="B23F5908.png"  transform="matrix(1 0 0 1 39 34.6667)">
		</image>
		<g>
			
				<image style="overflow:visible;opacity:0.25;" width="66" height="79" xlink:href="B23F5909.png"  transform="matrix(1 0 0 1 74 70.6667)">
			</image>
			<g>
				<g>
					<linearGradient id="SVGID_1_" gradientUnits="userSpaceOnUse" x1="102.9508" y1="79.7492" x2="102.9508" y2="134.5026">
						<stop  offset="0" style="stop-color:#FFC200"/>
						<stop  offset="1" style="stop-color:#D5A200"/>
					</linearGradient>
					<path style="fill:url(#SVGID_1_);" d="M102.949,79.749c-11.114,0-20.156,9.043-20.156,20.156c0,2.901,0.594,5.669,1.762,8.23
						c5.04,11.026,14.703,22.671,17.546,25.976c0.211,0.249,0.523,0.391,0.848,0.391c0.328,0,0.638-0.142,0.851-0.391
						c2.84-3.305,12.504-14.947,17.544-25.976c1.171-2.561,1.765-5.33,1.765-8.23C123.106,88.792,114.063,79.749,102.949,79.749
						L102.949,79.749z M102.949,110.376"/>
				</g>
			</g>
		</g>
	</g>
	<path style="fill:#501E00;" d="M102.575,92.398c1.376,0.864,2.342,2.324,2.517,4.02c0.56,0.261,1.185,0.411,1.845,0.411
		c2.411,0,4.366-1.954,4.366-4.364c0-2.412-1.955-4.366-4.366-4.366C104.549,88.099,102.611,90.018,102.575,92.398L102.575,92.398z
		 M99.714,101.336c2.413,0,4.366-1.954,4.366-4.366c0-2.41-1.954-4.364-4.366-4.364c-2.41,0-4.366,1.954-4.366,4.366
		C95.349,99.383,97.304,101.336,99.714,101.336L99.714,101.336z M101.567,101.634h-3.704c-3.082,0-5.59,2.508-5.59,5.59v4.531
		l0.013,0.071l0.312,0.098c2.94,0.918,5.496,1.225,7.6,1.225c4.109,0,6.488-1.17,6.637-1.246l0.29-0.147h0.031v-4.531
		C107.157,104.143,104.648,101.634,101.567,101.634L101.567,101.634z M108.789,97.128h-3.675c-0.04,1.469-0.667,2.795-1.661,3.747
		c2.741,0.814,4.745,3.354,4.745,6.356v1.395c3.629-0.133,5.721-1.161,5.859-1.23l0.29-0.149h0.033v-4.531
		C114.38,99.635,111.871,97.128,108.789,97.128L108.789,97.128z M95.976,100.876"/>
</g>
</svg>
