<?xml version="1.0" encoding="utf-8"?>
<!-- Generator: Adobe Illustrator 19.0.0, SVG Export Plug-In . SVG Version: 6.00 Build 0)  -->
<svg version="1.1" id="Layer_1" xmlns="http://www.w3.org/2000/svg" xmlns:xlink="http://www.w3.org/1999/xlink" x="0px" y="0px"
	 viewBox="0 0 137.8 219.8" style="enable-background:new 0 0 137.8 219.8;" xml:space="preserve">
<style type="text/css">
	.st0{fill:#E5E5E5;stroke:#12acde;stroke-width:10;stroke-miterlimit:10;}
</style>
<g id="XMLID_4_">
	<circle id="XMLID_15_" class="st0" cx="70.3" cy="34.3" r="18.1"/>
	<path id="XMLID_6_" class="st0" d="M123.2,80.7L95.8,53.4c-0.8-0.8-1.9-1.1-3-1l0,0H70.3H46.2l0,0c-1.1,0-2.2,0.2-3.1,1L15.8,80.7
		c-0.7,0.7-1,1.6-1,2.5c0,0.9,0.3,1.8,1,2.5l27.4,27.4c0.8,0.8,2,1.1,3.1,0.9v0.4h-3v28h3v52.2c0,5.5,4.4,9.9,9.9,9.9h0
		c5.5,0,9.9-4.4,9.9-9.9v-52.2h7.7v52.2c0,5.5,4.4,9.9,9.9,9.9h0c5.5,0,9.9-4.4,9.9-9.9v-52.2h2.2v-28h-3v-0.3
		c1.1,0.2,2.2-0.1,3-0.9l27.4-27.4c0.7-0.7,1-1.6,1-2.5C124.2,82.4,123.9,81.4,123.2,80.7z M41.3,83.3l5-5v9.9L41.3,83.3z
		 M92.8,88.2v-9.9l4.9,4.9L92.8,88.2z"/>
</g>
</svg>
