<?xml version="1.0" encoding="utf-8"?>
<!-- Generator: Adobe Illustrator 19.0.0, SVG Export Plug-In . SVG Version: 6.00 Build 0)  -->
<svg version="1.1" id="Layer_1" xmlns="http://www.w3.org/2000/svg" xmlns:xlink="http://www.w3.org/1999/xlink" x="0px" y="0px"
	 viewBox="0 0 246 188.7" style="enable-background:new 0 0 246 188.7;" xml:space="preserve">
<style type="text/css">
	.st0{fill:#E5E5E5;stroke:#12acde;stroke-width:13;stroke-miterlimit:10;}
</style>
<g id="XMLID_46_">
	<g id="XMLID_54_">
		<path id="XMLID_56_" class="st0" d="M99.5,169.6c-5.9-2.9-7.2-7.9-7.6-14.2c-1.1-18.3,6.1-32.3,20.6-42.9
			c6.3-4.6,13.2-8.1,20.7-10.1c22.2-5.8,43.8-4.8,64.2,6.5c8.5,4.7,15.3,11.4,20.4,19.8c6.2,10.3,6,21.5,4.9,32.7
			c-0.4,4-3.7,6.2-6.9,8.1C177.1,169.6,138.3,169.6,99.5,169.6z"/>
		<path id="XMLID_55_" class="st0" d="M162.4,19.1c5.5,1.4,10.8,3.2,15.4,6.8c11.7,9,15.9,24.5,10.5,38.5
			c-5.2,13.4-19.2,21.9-33.9,20.5c-14.4-1.3-26.4-12.5-29-27c-3.2-17.8,8.3-34.7,26.1-38.2c0.6-0.1,1.1-0.4,1.6-0.6
			C156.1,19.1,159.3,19.1,162.4,19.1z"/>
	</g>
	<g id="XMLID_47_">
		<g id="XMLID_94_">
			<path id="XMLID_96_" class="st0" d="M30.2,169.6c-5.9-2.9-7.2-7.9-7.6-14.2c-1.1-18.3,6.1-32.3,20.6-42.9
				c6.3-4.6,13.2-8.1,20.7-10.1c22.2-5.8,43.8-4.8,64.2,6.5c8.5,4.7,15.3,11.4,20.4,19.8c6.2,10.3,6,21.5,4.9,32.7
				c-0.4,4-3.7,6.2-6.9,8.1C107.8,169.6,69,169.6,30.2,169.6z"/>
			<path id="XMLID_95_" class="st0" d="M93.1,19.1c5.5,1.4,10.8,3.2,15.4,6.8c11.7,9,15.9,24.5,10.5,38.5
				C113.7,77.8,99.8,86.2,85,84.8c-14.4-1.3-26.4-12.5-29-27c-3.2-17.8,8.3-34.7,26.1-38.2c0.6-0.1,1.1-0.4,1.6-0.6
				C86.8,19.1,90,19.1,93.1,19.1z"/>
		</g>
	</g>
</g>
</svg>
